<svg xmlns="http://www.w3.org/2000/svg" width="807" height="1673" viewBox="0 0 807 1673">
    <g fill="none" fill-rule="evenodd">
        <path stroke="#C2B9A9" stroke-width="2" d="M227 1305h-32v56h-17.042L210 1405.294 242.042 1361H227v-56zM335.5 1168.5v32h56v17.042l44.294-32.042-44.294-32.042v15.042h-56zM335.5 1519.5v32h56v17.042l44.294-32.042-44.294-32.042v15.042h-56z"/>
        <rect width="266" height="266" fill="#89AB9A" rx="13" transform="translate(451 1407)"/>
        <g stroke="#F0EDEB" stroke-linejoin="round" stroke-width="1.98">
            <path stroke-linecap="round" d="M560.84 1493.847h9.732v31.144h-9.733"/>
            <path d="M566.679 1517.473c0 .594-.435 1.074-.974 1.074-.538 0-.973-.48-.973-1.074 0-.594.435-1.074.973-1.074.539 0 .974.48.974 1.074zM590.685 1527.138c-2.222 0-4.023-1.923-4.023-4.295 0-2.373 1.801-4.296 4.023-4.296h6.034c2.221 0 4.022 1.923 4.022 4.296 0 2.372-1.8 4.295-4.022 4.295h-22.125c-2.221 0-4.022-1.923-4.022-4.295M592.211 1517.473c-2.276 0-4.122-1.923-4.122-4.295 0-2.373 1.846-4.296 4.122-4.296h9.275c2.276 0 4.121 1.923 4.121 4.296 0 2.372-1.845 4.295-4.121 4.295h-4.122"/>
            <path d="M592.956 1508.882c-2.15 0-3.893-1.923-3.893-4.296 0-2.372 1.743-4.295 3.893-4.295h1.946M603.661 1500.29c2.15 0 3.893 1.924 3.893 4.296 0 2.373-1.743 4.296-3.893 4.296h-1.946M595.226 1491.37c-2.269 0-4.109 1.997-4.109 4.46 0 2.464 1.84 4.46 4.11 4.46h8.218c2.269 0 4.109-1.996 4.109-4.46 0-2.463-1.84-4.46-4.11-4.46h-16.436v-13.383c0-3.695-2.76-6.691-6.164-6.691h-2.054v10.036l-8.218 14.498"/>
        </g>
        <text fill="#FFF" font-family="Montserrat-Medium, Montserrat" font-size="15.84" font-weight="400" letter-spacing="1.408" transform="translate(379 1393)">
            <tspan x="129.96" y="168">Miner is paid for </tspan> <tspan x="165.213" y="189.78">verifying </tspan> <tspan x="152.947" y="211.56">transaction</tspan>
        </text>
        <rect width="266" height="266" fill="#C2B9A9" rx="13" transform="translate(82 1407)"/>
        <g fill="#F0EDEB">
            <path d="M238.679 1491.54c0 .721-.313 1.118-.407 1.145h-1.203c-.898 0-1.6.852-1.6 1.94v31.012h-2.264v-26.779c0-.73-.536-1.323-1.199-1.323H197.99c-.663 0-1.2.592-1.2 1.323v26.779h-2.262v-31.012c0-1.088-.703-1.94-1.6-1.94l-1.2.001c-.098-.028-.41-.425-.41-1.147v-5.14c0-.612.228-1.032.39-1.136l22.469-14.345c.411-.262.84-.263 1.251-.005l22.858 14.36c.163.102.393.523.393 1.136v5.13zm-39.49 34.19h31.618v-12.15h-31.619v12.15zm0-14.795h31.618v-10.754h-31.619v10.754zm40.284-27.961l-22.86-14.36a3.36 3.36 0 0 0-1.806-.54c-.63 0-1.263.191-1.83.555l-22.47 14.344c-.979.626-1.587 1.938-1.587 3.425v5.141c0 2.126 1.23 3.792 2.803 3.792h.407v30.4h-1.672v2.645h49.08v-2.645h-1.673v-30.4h.407c1.572 0 2.804-1.666 2.804-3.792v-5.13c0-1.497-.614-2.813-1.603-3.435z"/>
            <path d="M199.103 1491.885h5.628v-2.91h-5.628v2.91zm6.827-5.555h-8.026c-.662 0-1.199.592-1.199 1.323v5.554c0 .731.537 1.323 1.2 1.323h8.025c.662 0 1.199-.592 1.199-1.323v-5.554c0-.73-.537-1.323-1.2-1.323zM211.755 1491.885h5.628v-2.91h-5.628v2.91zm6.827-5.555h-8.026c-.662 0-1.199.592-1.199 1.323v5.554c0 .731.537 1.323 1.2 1.323h8.025c.663 0 1.2-.592 1.2-1.323v-5.554c0-.73-.537-1.323-1.2-1.323zM225.38 1491.885h5.629v-2.91h-5.629v2.91zm6.827-5.555h-8.026c-.662 0-1.199.592-1.199 1.323v5.554c0 .731.537 1.323 1.2 1.323h8.025c.663 0 1.2-.592 1.2-1.323v-5.554c0-.73-.537-1.323-1.2-1.323zM202.77 1508.306h25.3c.662 0 1.198-.592 1.198-1.323 0-.73-.536-1.323-1.199-1.323H202.77c-.662 0-1.198.592-1.198 1.323s.536 1.323 1.198 1.323M202.77 1504.01h25.3c.662 0 1.198-.592 1.198-1.322 0-.73-.536-1.323-1.199-1.323H202.77c-.662 0-1.198.592-1.198 1.323 0 .73.536 1.322 1.198 1.322"/>
        </g>
        <text fill="#FFF" font-family="Montserrat-Medium, Montserrat" font-size="15.84" font-weight="400" letter-spacing="1.408" transform="translate(10 1393)">
            <tspan x="133.492" y="168">Supplier is paid </tspan> <tspan x="147.252" y="189.78">by merchant </tspan> <tspan x="162.132" y="211.56">for goods</tspan>
        </text>
        <g>
            <rect width="266" height="266" fill="#89AB9A" rx="13" transform="translate(451 1056)"/>
            <g stroke="#F0EDEB" stroke-linejoin="round" stroke-width="1.98">
                <path stroke-linecap="round" d="M560.84 1142.847h9.732v31.144h-9.733"/>
                <path d="M566.679 1166.473c0 .594-.435 1.074-.974 1.074-.538 0-.973-.48-.973-1.074 0-.594.435-1.074.973-1.074.539 0 .974.48.974 1.074zM590.685 1176.138c-2.222 0-4.023-1.923-4.023-4.295 0-2.373 1.801-4.296 4.023-4.296h6.034c2.221 0 4.022 1.923 4.022 4.296 0 2.372-1.8 4.295-4.022 4.295h-22.125c-2.221 0-4.022-1.923-4.022-4.295M592.211 1166.473c-2.276 0-4.122-1.923-4.122-4.295 0-2.373 1.846-4.296 4.122-4.296h9.275c2.276 0 4.121 1.923 4.121 4.296 0 2.372-1.845 4.295-4.121 4.295h-4.122"/>
                <path d="M592.956 1157.882c-2.15 0-3.893-1.923-3.893-4.296 0-2.372 1.743-4.295 3.893-4.295h1.946M603.661 1149.29c2.15 0 3.893 1.924 3.893 4.296 0 2.373-1.743 4.296-3.893 4.296h-1.946M595.226 1140.37c-2.269 0-4.109 1.997-4.109 4.46 0 2.464 1.84 4.46 4.11 4.46h8.218c2.269 0 4.109-1.996 4.109-4.46 0-2.463-1.84-4.46-4.11-4.46h-16.436v-13.383c0-3.695-2.76-6.691-6.164-6.691h-2.054v10.036l-8.218 14.498"/>
            </g>
            <text fill="#FFF" font-family="Montserrat-Medium, Montserrat" font-size="15.84" font-weight="400" letter-spacing="1.408" transform="translate(379 1042)">
                <tspan x="129.96" y="168">Miner is paid for </tspan> <tspan x="165.213" y="189.78">verifying </tspan> <tspan x="152.947" y="211.56">transaction</tspan>
            </text>
        </g>
        <g>
            <rect width="266" height="266" fill="#C2B9A9" rx="13" transform="translate(82 1056)"/>
            <g fill="#F0EDEB">
                <path d="M238.929 1138.135c-.294 1.568-1.207 3.437-3.888 3.437-2.056 0-3.464-1.486-4.432-4.676a1.086 1.086 0 0 0-.08-.197c-.06-.219-.122-.434-.187-.64l-4.036-12.6h5.974c.501 0 .967.322 1.185.82l5.06 11.558c.388.884.524 1.657.404 2.298zm-10.125.93c-.474 1.523-1.981 2.507-3.837 2.507-2.161 0-3.588-1.368-4.02-3.852l-1.665-14.26h5.015l4.259 13.296c.243.757.461 1.623.248 2.308zm-13.912 2.507c-2.056 0-4.134-1.248-4.167-3.63l2.022-14.483h4.625l1.69 14.47c-.027 2.391-2.11 3.643-4.17 3.643zm-10.074 0c-1.884 0-3.354-.96-3.836-2.507-.214-.687.007-1.55.252-2.303l4.322-13.303h5.275l-1.989 14.243c-.4 2.496-1.83 3.87-4.024 3.87zm-5.367-5.515c-.066.203-.128.415-.187.63a1.107 1.107 0 0 0-.089.209c-.967 3.19-2.375 4.676-4.43 4.676-2.682 0-3.595-1.87-3.89-3.437-.12-.64.016-1.414.404-2.299l5.06-11.556c.218-.499.684-.82 1.186-.82h6.04l-4.094 12.597zm40.78-1.13l-5.06-11.557c-.533-1.215-1.668-2-2.891-2h-34.775c-1.224 0-2.359.785-2.89 2l-5.061 11.557c-.573 1.308-.76 2.53-.553 3.631.6 3.196 2.746 5.104 5.744 5.104 2.014 0 3.639-.991 4.856-2.95.978 1.82 2.924 2.95 5.217 2.95 2.134 0 3.836-.977 4.882-2.719 1.043 1.654 2.933 2.719 5.192 2.719 2.265 0 4.16-1.07 5.201-2.73 1.052 1.746 2.753 2.73 4.874 2.73 2.293 0 4.238-1.13 5.217-2.95 1.217 1.959 2.842 2.95 4.857 2.95 2.996 0 5.143-1.908 5.743-5.104.205-1.102.02-2.323-.553-3.63zM204.376 1154.602h-1.858c-.523 0-.946-.468-.946-1.045s.423-1.044.946-1.044h1.858c.523 0 .947.467.947 1.044s-.424 1.045-.947 1.045M228.964 1158.01a.9.9 0 0 1-.67-.306l-6.98-7.704a1.123 1.123 0 0 1 0-1.477.885.885 0 0 1 1.338 0l6.982 7.704c.37.408.37 1.07 0 1.477a.9.9 0 0 1-.67.307M230.518 1153.282a.903.903 0 0 1-.67-.306l-3.669-4.049a1.123 1.123 0 0 1 0-1.478.886.886 0 0 1 1.34 0l3.669 4.05c.37.408.37 1.07 0 1.477a.902.902 0 0 1-.67.306M208.331 1164.373v-18.333c0-.577-.423-1.045-.946-1.045-.523 0-.947.468-.947 1.045v18.333h1.893"/>
                <path d="M193.733 1169.694h42.786v-3.279h-42.786v3.28zm43.733 2.09h-44.68c-.523 0-.947-.468-.947-1.045v-5.369c0-.577.424-1.045.947-1.045h44.68c.523 0 .947.468.947 1.045v5.37c0 .576-.424 1.044-.947 1.044z"/>
                <path d="M193.733 1169.694h42.786v-3.279h-42.786v3.28zm43.733 2.09h-44.68c-.523 0-.947-.468-.947-1.045v-5.369c0-.577.424-1.045.947-1.045h44.68c.523 0 .947.468.947 1.045v5.37c0 .576-.424 1.044-.947 1.044zM236.555 1146.04c0-.577-.424-1.045-.947-1.045-.523 0-.947.468-.947 1.045v18.086h1.894v-18.086"/>
                <path d="M195.68 1164.62v-18.58c0-.577-.424-1.045-.947-1.045-.523 0-.947.468-.947 1.045v18.58h1.894"/>
            </g>
            <text fill="#FFF" font-family="Montserrat-Medium, Montserrat" font-size="15.84" font-weight="400" letter-spacing="1.408" transform="translate(10 1042)">
                <tspan x="128.257" y="168">Merchant is paid </tspan> <tspan x="144.298" y="189.78">by Moms and </tspan> <tspan x="127.845" y="211.56">Miners for goods</tspan>
            </text>
        </g>
        <g>
            <path stroke="#C2B9A9" stroke-width="2" d="M620.772 213.73l-12.915 6.832 51.388 21.465 10.9-54.416-14.317 7.572c-.25-.489-.47-.988-.728-1.473-27.371-51.477-82.952-78.183-137.388-71.231 33.33 4.177 76.07 37.098 97.68 79.84 1.915 3.792 3.728 7.584 5.38 11.41zM221.73 173.228l6.832 12.915 21.465-51.388-54.416-10.9 7.572 14.317c-.489.25-.988.47-1.473.728-51.477 27.371-78.183 82.952-71.231 137.388 4.177-33.33 37.098-76.07 79.84-97.68 3.792-1.915 7.584-3.728 11.41-5.38zM592.881 605.88c-3.758 1.98-7.517 3.86-11.314 5.578l-7.057-12.793-20.566 51.751 54.596 9.945-7.82-14.18c.484-.26.98-.487 1.46-.754 50.992-28.265 76.726-84.3 68.827-138.6-3.596 33.394-35.767 76.7-78.126 99.053M183.612 579.678c-1.914-3.792-3.727-7.583-5.38-11.41l12.915-6.832-51.385-21.467-10.896 54.415 14.315-7.572c.251.49.47.988.728 1.473 27.371 51.478 82.948 78.186 137.379 71.236-33.327-4.179-76.065-37.1-97.676-79.843"/>
            <circle cx="130.5" cy="130.5" r="130.5" fill="#C2B9A9" transform="translate(267 523)"/>
            <g transform="translate(273 528)">
                <path fill="#C2B9A9" fill-rule="nonzero" d="M36.97 74C16.551 74 0 57.435 0 37S16.552 0 36.97 0c20.417 0 36.969 16.565 36.969 37s-16.552 37-36.97 37zm0-8.473c15.741 0 28.502-12.772 28.502-28.527S52.712 8.473 36.97 8.473C21.228 8.473 8.466 21.245 8.466 37S21.228 65.527 36.97 65.527z"/>
                <ellipse cx="37.736" cy="37.763" fill="#FFF" rx="32.736" ry="32.763"/>
                <circle cx="38" cy="38" r="37" fill="#FFF" stroke="#C2B9A9" stroke-width="2"/>
                <text fill="#C2B9A9" font-family="Montserrat-Medium, Montserrat" font-size="30" font-weight="400" letter-spacing=".951">
                    <tspan x="16.009" y="46">04</tspan>
                </text>
            </g>
            <text fill="#FFF" font-family="Montserrat-Medium, Montserrat" font-size="15" font-weight="400" letter-spacing="1.071" transform="translate(267 523)">
                <tspan x="57.685" y="154">Parent is paid for </tspan> <tspan x="73.391" y="176">sending child</tspan> <tspan x="92.694" y="198">to school</tspan>
            </text>
            <g stroke="#F0EDEB" stroke-linejoin="round" stroke-width="2">
                <path d="M411 644.2h13s-3.65-6.62-4.22-14.3M377.243 629.9c-.572 7.68-4.243 14.3-4.243 14.3h13"/>
                <path d="M380 628.8c0 11.543 8.506 20.9 19 20.9s19-9.357 19-20.9M419 616.7v-4.783c0-12.546-9.401-22.717-21-22.717s-21 10.171-21 22.717v4.783"/>
                <path d="M418 617.8c-15.434-.893-30.176-7.684-30.176-14.3 0 1.992-2.032 4.549-3.353 5.958-2.514 2.68-4.471 3.767-4.471 7.15v1.192M380 629.9h-3.5c-1.932 0-3.5-1.625-3.5-3.63v-4.84c0-2.005 1.568-3.63 3.5-3.63h3.5v12.1zM424 626.27c0 2.005-1.568 3.63-3.5 3.63H417v-12.1h3.5c1.932 0 3.5 1.625 3.5 3.63v4.84z"/>
            </g>
            <g>
                <circle cx="130.5" cy="130.5" r="130.5" fill="#89AB9A" transform="translate(546 254)"/>
                <g transform="translate(552 259)">
                    <path fill="#89AB9A" fill-rule="nonzero" d="M36.97 74C16.551 74 0 57.435 0 37S16.552 0 36.97 0c20.417 0 36.969 16.565 36.969 37s-16.552 37-36.97 37zm0-8.473c15.741 0 28.502-12.772 28.502-28.527S52.712 8.473 36.97 8.473C21.228 8.473 8.466 21.245 8.466 37S21.228 65.527 36.97 65.527z"/>
                    <ellipse cx="37.211" cy="37.24" fill="#FFF" rx="35.211" ry="35.24"/>
                    <circle cx="38" cy="38" r="37" fill="#FFF" stroke="#89AB9A" stroke-width="2"/>
                    <text fill="#89AB9A" font-family="Montserrat-Medium, Montserrat" font-size="30" font-weight="400" letter-spacing=".951">
                        <tspan x="17.614" y="47">03</tspan>
                    </text>
                </g>
                <text fill="#FFF" font-family="Montserrat-Medium, Montserrat" font-size="15" font-weight="400" letter-spacing="1.071" transform="translate(540 256)">
                    <tspan x="56.729" y="152">Miners are paid for </tspan> <tspan x="73.434" y="174">verifying effort</tspan>
                </text>
                <g stroke="#F0EDEB" stroke-linejoin="round" stroke-width="2">
                    <path stroke-linecap="round" d="M654 345.5h10v31.9h-10"/>
                    <path d="M660 369.7c0 .608-.447 1.1-1 1.1-.553 0-1-.492-1-1.1 0-.608.447-1.1 1-1.1.553 0 1 .492 1 1.1zM684.667 379.6c-2.283 0-4.134-1.97-4.134-4.4 0-2.43 1.851-4.4 4.134-4.4h6.2c2.282 0 4.133 1.97 4.133 4.4 0 2.43-1.85 4.4-4.133 4.4h-22.734c-2.282 0-4.133-1.97-4.133-4.4M686.235 369.7c-2.339 0-4.235-1.97-4.235-4.4 0-2.43 1.896-4.4 4.235-4.4h9.53c2.339 0 4.235 1.97 4.235 4.4 0 2.43-1.896 4.4-4.235 4.4h-4.236M687 360.9c-2.209 0-4-1.97-4-4.4 0-2.43 1.791-4.4 4-4.4h2M698 352.1c2.209 0 4 1.97 4 4.4 0 2.43-1.791 4.4-4 4.4h-2M689.333 342.962c-2.331 0-4.222 2.045-4.222 4.569 0 2.523 1.89 4.569 4.222 4.569h8.445c2.332 0 4.222-2.046 4.222-4.57 0-2.523-1.89-4.568-4.222-4.568h-16.89v-13.708c0-3.785-2.835-6.854-6.332-6.854h-2.112v10.28L664 347.53"/>
                </g>
            </g>
            <g>
                <circle cx="130.5" cy="130.5" r="130.5" fill="#C2B9A9" transform="translate(267)"/>
                <g transform="translate(273 5)">
                    <path fill="#C2B9A9" fill-rule="nonzero" d="M36.97 74C16.551 74 0 57.435 0 37S16.552 0 36.97 0c20.417 0 36.969 16.565 36.969 37s-16.552 37-36.97 37zm0-8.473c15.741 0 28.502-12.772 28.502-28.527S52.712 8.473 36.97 8.473C21.228 8.473 8.466 21.245 8.466 37S21.228 65.527 36.97 65.527z"/>
                    <ellipse cx="37.736" cy="37.763" fill="#FFF" rx="32.736" ry="32.763"/>
                    <circle cx="38" cy="38" r="37" fill="#FFF" stroke="#C2B9A9" stroke-width="2"/>
                    <text fill="#C2B9A9" font-family="Montserrat-Medium, Montserrat" font-size="30" font-weight="400" letter-spacing=".951">
                        <tspan x="17.479" y="46">02</tspan>
                    </text>
                </g>
                <text fill="#FFF" font-family="Montserrat-Medium, Montserrat" font-size="15" font-weight="400" letter-spacing="1.071" transform="translate(261 2)">
                    <tspan x="50.714" y="152">Designated spotters </tspan> <tspan x="50.282" y="174">get micro-payments </tspan> <tspan x="52.676" y="196">for verification data</tspan>
                </text>
                <g stroke="#F0EDEB">
                    <path stroke-linejoin="round" stroke-width="2" d="M376.778 117.695h31.11"/>
                    <path stroke-linecap="round" stroke-linejoin="round" stroke-width="2" d="M385.667 123.288h4.444"/>
                    <path d="M393.444 70.153c0 .308-.248.559-.555.559a.558.558 0 0 1-.556-.56c0-.308.25-.559.556-.559.307 0 .555.25.555.56z"/>
                    <path stroke-linejoin="round" stroke-width="2" d="M410.111 103.153c7.978 0 14.445-6.511 14.445-14.543 0-8.031-6.467-14.542-14.445-14.542-7.977 0-14.444 6.51-14.444 14.542a14.55 14.55 0 0 0 4.23 10.283l-4.23 4.26h14.444z"/>
                    <path stroke-linecap="round" stroke-linejoin="round" stroke-width="2" d="M413.444 84.136H409a2.23 2.23 0 0 0-2.222 2.237A2.23 2.23 0 0 0 409 88.61h2.222a2.23 2.23 0 0 1 2.222 2.237 2.23 2.23 0 0 1-2.222 2.238h-4.444M409 81.898v2.238M409 93.085v2.237"/>
                    <path stroke-linejoin="round" stroke-width="2" d="M410.603 65.822a4.31 4.31 0 0 0-2.372-.703h-27.35c-2.267 0-4.103 1.682-4.103 3.758v55.127c0 2.077 1.836 3.759 4.102 3.759h27.35c2.265 0 4.103-1.682 4.103-3.759v-16.287M394.355 75.186h-17.577"/>
                </g>
            </g>
            <g>
                <circle cx="130.5" cy="130.5" r="130.5" fill="#C2B9A9" transform="translate(0 254)"/>
                <g transform="translate(6 259)">
                    <path fill="#C2B9A9" fill-rule="nonzero" d="M36.97 74C16.551 74 0 57.435 0 37S16.552 0 36.97 0c20.417 0 36.969 16.565 36.969 37s-16.552 37-36.97 37zm0-8.473c15.741 0 28.502-12.772 28.502-28.527S52.712 8.473 36.97 8.473C21.228 8.473 8.466 21.245 8.466 37S21.228 65.527 36.97 65.527z"/>
                    <ellipse cx="37.736" cy="37.763" fill="#FFF" rx="32.736" ry="32.763"/>
                    <circle cx="38" cy="38" r="37" fill="#FFF" stroke="#C2B9A9" stroke-width="2"/>
                    <text fill="#C2B9A9" font-family="Montserrat-Medium, Montserrat" font-size="30" font-weight="400" letter-spacing=".951">
                        <tspan x="20.539" y="46">01</tspan>
                    </text>
                </g>
                <text fill="#FFF" font-family="Montserrat-Medium, Montserrat" font-size="15" font-weight="400" letter-spacing="1.071" transform="translate(0 254)">
                    <tspan x="59.089" y="154">Mom sends child </tspan> <tspan x="92.694" y="176">to school</tspan>
                </text>
                <path fill="#F0EDEB" d="M155.75 344.21c0 .689-.504 1.248-1.125 1.248H153.5v-9.985h1.125c.621 0 1.125.56 1.125 1.248v7.489zm-2.248 28.705H108.5v-2.497h45l.002 2.497zm-9.002 7.489h4.5v-4.994h-4.5v4.994zm-31.5 0h4.5v-4.994H113v4.994zm-5.625-34.946c-.621 0-1.125-.56-1.125-1.248v-7.489c0-.689.504-1.248 1.125-1.248h1.125v9.985h-1.125zm30.375 13.729v8.736h-13.5v-8.736c0-.69.504-1.249 1.125-1.25h11.25c.621.001 1.125.56 1.125 1.25zm-27-6.242h40.5v14.978H140v-8.736c0-2.065-1.514-3.745-3.375-3.745h-11.25c-1.86 0-3.375 1.68-3.375 3.745v8.736h-11.25v-14.978zm0-2.495h19.125v-14.978H110.75v14.978zm21.375 0h19.125v-14.978h-19.125v14.978zm-21.375-21.217c0-4.133 8.317-8.737 20.25-8.737s20.25 4.604 20.25 8.737v3.744h-40.5v-3.744zm43.875 3.744H153.5v-3.744c0-6.3-9.883-11.233-22.5-11.233s-22.5 4.934-22.5 11.233v3.744h-1.125c-1.86 0-3.375 1.68-3.375 3.744v7.489c0 2.064 1.514 3.744 3.375 3.744h1.125v19.97c-1.24 0-2.25 1.119-2.25 2.495v2.496c0 1.377 1.01 2.497 2.25 2.495h2.25v4.994c0 1.376 1.01 2.496 2.25 2.496h4.5c1.24 0 2.25-1.12 2.25-2.496v-4.994h22.5v4.994c0 1.376 1.01 2.496 2.25 2.496h4.5c1.24 0 2.25-1.12 2.25-2.496v-4.994h2.25c1.24.002 2.25-1.118 2.25-2.495v-2.496c0-1.376-1.01-2.496-2.25-2.496v-19.97h1.125c1.86 0 3.375-1.68 3.375-3.743v-7.489c0-2.064-1.514-3.744-3.375-3.744zm-30.375-4.992h13.5v-2.498h-13.5v2.498zm14.625-4.993h-15.75c-.622 0-1.125.558-1.125 1.248v4.993c0 .69.503 1.248 1.125 1.248h15.75c.622 0 1.125-.558 1.125-1.248v-4.993c0-.69-.503-1.248-1.125-1.248zm-21.375 2.496c-1.24 0-2.25 1.12-2.25 2.497 0 1.376 1.01 2.496 2.25 2.496s2.25-1.12 2.25-2.496c0-1.377-1.01-2.497-2.25-2.497zm27 0c-1.24 0-2.25 1.12-2.25 2.497 0 1.376 1.01 2.496 2.25 2.496s2.25-1.12 2.25-2.496c0-1.377-1.01-2.497-2.25-2.497zm1.125 34.947c.621 0 1.125.559 1.125 1.248s-.504 1.248-1.125 1.248-1.125-.56-1.125-1.248c0-.69.504-1.248 1.125-1.248zm0 4.992c1.86 0 3.375-1.68 3.375-3.744 0-2.065-1.514-3.745-3.375-3.745-1.86 0-3.375 1.68-3.375 3.745 0 2.064 1.514 3.744 3.375 3.744zm-29.25-2.496c-.621 0-1.125-.56-1.125-1.248 0-.69.504-1.248 1.125-1.248s1.125.559 1.125 1.248-.504 1.248-1.125 1.248zm0-4.993c-1.86 0-3.375 1.68-3.375 3.745 0 2.064 1.514 3.744 3.375 3.744 1.86 0 3.375-1.68 3.375-3.744 0-2.065-1.514-3.745-3.375-3.745z"/>
            </g>
        </g>
        <path stroke="#C2B9A9" stroke-width="2" d="M424 829h-47v87h-25.165L399 989.155 446.165 916H424v-87z"/>
    </g>
</svg>
