<?xml version="1.0" encoding="utf-8"?>
<!-- Generator: Adobe Illustrator 19.2.1, SVG Export Plug-In . SVG Version: 6.00 Build 0)  -->
<svg version="1.1" id="Слой_1" xmlns="http://www.w3.org/2000/svg" xmlns:xlink="http://www.w3.org/1999/xlink" x="0px" y="0px"
	 viewBox="0 0 295.6 299.9" style="enable-background:new 0 0 295.6 299.9;" xml:space="preserve">
<style type="text/css">
	.st0{fill:none;stroke:#000000;stroke-width:0.51;stroke-miterlimit:10;}
	.st1{fill:none;stroke:#000000;stroke-width:0.51;stroke-linecap:round;stroke-linejoin:round;stroke-miterlimit:10;}
</style>
<path class="st0" d="M108.3,126.7l3.9,8.8l7.8,5.7l8.5,4.7l8.7,4.4l17.5,8.5l8.4,4.9l4.1,3.6l1.9,3.8 M91.2,129.3L93,138l4.6,7.6
	l6.4,6.4l8.6,5.9l9.5,4.5"/>
<path class="st0" d="M175.2,257.5l2.7-0.7l2.8-0.8l2.7-0.9l2.7-0.9l2.6-1l2.7-1.1l2.6-1.1l2.6-1.2l2.5-1.2l2.5-1.4l2.5-1.3l2.5-1.5
	l2.4-1.5l2.4-1.6l2.3-1.6l2.3-1.6l2.2-1.8l2.3-1.8l2.1-1.8l2.1-1.9l2.1-2l2-1.9l2-2.1l1.9-2.1l1.9-2.1l1.8-2.2l1.8-2.3l1.7-2.2
	l1.6-2.3l1.6-2.4l1.6-2.4l1.4-2.4l1.5-2.5l1.3-2.5l1.3-2.5l1.2-2.6l1.2-2.6l1.1-2.6l1-2.7l1-2.6l0.9-2.7l0.8-2.8l0.8-2.7l0.7-2.8
	l0.6-2.7l0.6-2.8l0.5-2.8l0.4-2.8l0.4-2.8l0.2-2.9l0.3-2.8l0.1-2.9l0.1-2.8v-2.8l-0.1-2.9l-0.1-2.8l-0.2-2.9l-0.3-2.8l-0.4-2.8
	l-0.4-2.8l-0.5-2.8l-0.5-2.8l-0.6-2.8l-0.7-2.7l-0.8-2.8l-0.8-2.7l-0.9-2.7l-1-2.7l-1-2.6l-1.1-2.7l-1.1-2.6l-1.3-2.5l-1.2-2.6
	l-1.4-2.5l-1.4-2.4l-1.5-2.5l-1.5-2.4l-1.6-2.3l-1.6-2.4l-1.7-2.2l-1.8-2.3l-1.8-2.2l-1.9-2.1l-1.9-2.1l-1.9-2.1l-2.1-2l-2-1.9
	l-2.2-1.9l-2.1-1.9l-2.2-1.8l-2.3-1.7l-2.3-1.7l-2.3-1.6l-2.4-1.6l-2.4-1.5l-2.4-1.4l-2.5-1.4l-2.5-1.3l-2.6-1.3l-2.6-1.2l-2.6-1.1
	l-2.6-1.1l-2.7-1l-2.6-1L181,36l-2.8-0.8l-2.7-0.8l-2.8-0.6l-2.8-0.6l-2.8-0.6l-2.8-0.4l-2.8-0.4l-2.8-0.4l-2.8-0.2L153,31l-2.8-0.1
	l-2.9-0.1l-2.8,0.1l-2.8,0.1l-2.9,0.1 M175.2,232.1l2.1-0.8l2.2-0.7l2.1-0.9l2.1-0.9l2-0.9l2.1-1l2-1.1l2-1.1l1.9-1.1l2-1.2l1.9-1.3
	l1.8-1.2l1.9-1.4l1.8-1.4l1.8-1.4l1.7-1.5l1.7-1.5l1.6-1.5l1.6-1.6l1.6-1.7l1.6-1.7l1.4-1.7l1.5-1.7l1.4-1.8l1.3-1.8l1.4-1.9
	l1.2-1.9l1.2-1.9l1.2-1.9l1.1-2l1.1-2l1-2l1-2.1l0.9-2.1l0.9-2.1l0.8-2.1l0.7-2.2l0.7-2.1l0.7-2.2l0.6-2.2l0.5-2.2l0.5-2.2l0.4-2.2
	l0.4-2.3l0.3-2.2l0.3-2.3l0.2-2.3l0.1-2.2l0.1-2.3V146v-2.2l-0.1-2.3l-0.1-2.3l-0.2-2.2l-0.3-2.3l-0.3-2.2l-0.3-2.3l-0.5-2.2
	l-0.4-2.2l-0.6-2.2l-0.6-2.2l-0.6-2.2l-0.7-2.2l-0.8-2.1l-0.8-2.2l-0.8-2.1l-0.9-2l-1-2.1l-1-2l-1.1-2l-1.1-2l-1.1-2l-1.3-1.9
	l-1.2-1.9l-1.3-1.8l-1.4-1.9l-1.4-1.8l-1.4-1.7l-1.5-1.7l-1.5-1.7l-1.6-1.6l-1.6-1.6l-1.7-1.6l-1.7-1.5l-1.7-1.5l-1.8-1.4l-1.8-1.4
	l-1.8-1.4l-1.9-1.3l-1.8-1.2l-2-1.2l-1.9-1.2l-2-1.1l-2-1l-2.1-1l-2-1l-2.1-0.9l-2.1-0.8l-2.2-0.8l-2.1-0.7l-2.2-0.7l-2.2-0.7
	l-2.2-0.5l-2.2-0.6l-2.2-0.4l-2.2-0.4l-2.3-0.4l-2.2-0.3l-2.3-0.2"/>
<path class="st0" d="M176.9,251.8l2.6-0.8l2.5-0.8l2.5-0.9l2.6-0.9l2.4-1l2.5-1.1l2.4-1.1l2.4-1.2l2.4-1.3l2.4-1.3l2.3-1.3l2.2-1.4
	l2.3-1.5l2.2-1.5l2.2-1.6l2.1-1.6l2.1-1.7l2-1.7l2-1.8l2-1.9l1.9-1.8l1.9-2l1.8-1.9l1.8-2l1.7-2.1l1.7-2.1l1.6-2.1l1.6-2.2l1.5-2.2
	l1.4-2.2l1.4-2.3l1.4-2.3l1.3-2.4l1.2-2.4l1.2-2.4l1.1-2.4l1.1-2.5l1-2.5l0.9-2.5l0.9-2.5l0.8-2.6l0.7-2.6l0.7-2.5l0.7-2.6l0.5-2.7
	l0.5-2.6l0.5-2.7l0.3-2.6l0.3-2.7l0.3-2.6l0.1-2.7l0.1-2.7l0.1-2.7v-2.7l-0.1-2.6l-0.2-2.7l-0.2-2.7l-0.3-2.7l-0.3-2.6l-0.4-2.7
	L255,125l-0.6-2.6l-0.6-2.6l-0.6-2.6l-0.8-2.6l-0.8-2.6l-0.8-2.5l-1-2.5l-0.9-2.5l-1.1-2.5l-1.1-2.4l-1.1-2.5l-1.3-2.3l-1.2-2.4
	l-1.4-2.3l-1.4-2.3l-1.4-2.3l-1.5-2.2l-1.5-2.2l-1.7-2.1l-1.6-2.1l-1.7-2.1l-1.8-2l-1.8-2l-1.8-1.9l-1.9-1.9l-2-1.9l-2-1.8l-2-1.7
	l-2.1-1.7l-2.1-1.7l-2.2-1.6l-2.2-1.5l-2.2-1.5l-2.3-1.4l-2.3-1.4l-2.3-1.3l-2.4-1.3l-2.4-1.2l-2.4-1.1l-2.4-1.1l-2.5-1l-2.5-1
	l-2.6-0.9l-2.5-0.8l-2.6-0.8l-2.5-0.7l-2.6-0.7l-2.7-0.6l-2.6-0.5l-2.6-0.4l-2.7-0.4l-2.6-0.4l-2.7-0.2l-2.7-0.2l-2.7-0.2h-2.6h-2.7
	h-2.7l-2.7,0.1 M176.9,255.3l2.7-0.7l2.6-0.9l2.6-0.9l2.6-0.9l2.6-1l2.5-1.1l2.6-1.2l2.5-1.2l2.4-1.2l2.5-1.4l2.4-1.4l2.3-1.4
	l2.4-1.5l2.2-1.6l2.3-1.6l2.2-1.6l2.2-1.7l2.1-1.8l2.1-1.8l2-1.9l2-1.9l2-2l1.9-2l1.8-2.1l1.8-2.1l1.8-2.2l1.7-2.2l1.6-2.2l1.6-2.3
	l1.5-2.3l1.5-2.3l1.4-2.4l1.3-2.4l1.3-2.5l1.3-2.5l1.1-2.5l1.1-2.5l1.1-2.6l1-2.6l0.9-2.6l0.8-2.6l0.8-2.7l0.8-2.6l0.6-2.7l0.6-2.7
	l0.6-2.8l0.4-2.7l0.4-2.7l0.3-2.8l0.3-2.7l0.2-2.8l0.1-2.8l0.1-2.7v-2.8l-0.1-2.8l-0.1-2.7l-0.3-2.8l-0.2-2.8l-0.4-2.7l-0.4-2.8
	l-0.5-2.7l-0.5-2.7l-0.6-2.7l-0.7-2.7l-0.8-2.7l-0.8-2.6l-0.8-2.6l-1-2.6l-1-2.6l-1-2.6l-1.2-2.5l-1.2-2.5l-1.2-2.5l-1.3-2.4
	l-1.4-2.4l-1.4-2.4L242,84l-1.5-2.3l-1.6-2.2l-1.7-2.2l-1.7-2.2l-1.7-2.2l-1.9-2.1l-1.8-2l-1.9-2l-2-2l-2-1.9l-2-1.9l-2.1-1.8
	l-2.2-1.7l-2.2-1.7l-2.2-1.7l-2.2-1.6L209,51l-2.4-1.5l-2.4-1.4l-2.4-1.4l-2.4-1.3l-2.5-1.3l-2.5-1.2l-2.5-1.1l-2.6-1.1l-2.6-1
	l-2.6-0.9l-2.6-0.9l-2.6-0.8l-2.7-0.7l-2.7-0.7l-2.7-0.6l-2.7-0.6l-2.7-0.5l-2.8-0.4l-2.7-0.3l-2.8-0.3l-2.7-0.2l-2.8-0.2h-2.8
	l-2.7-0.1l-2.8,0.1l-2.8,0.1 M119,34.3l-2.7,0.8l-2.8,0.8l-2.7,0.8l-2.7,1l-2.6,1l-2.7,1l-2.6,1.1L97.6,42L95,43.3l-2.5,1.3L90,46
	l-2.4,1.4L85.1,49l-2.3,1.5l-2.4,1.6l-2.3,1.7l-2.3,1.8l-2.2,1.7l-2.2,1.9l-2.1,1.9L67.2,63l-2,2l-2,2.1l-1.9,2.1l-1.9,2.1l-1.8,2.2
	l-1.8,2.3l-1.7,2.3l-1.6,2.3l-1.6,2.3l-1.6,2.4l-1.5,2.5l-1.4,2.5l-1.3,2.5l-1.3,2.5l-1.3,2.6l-1.1,2.6l-1.1,2.6l-1.1,2.7l-1,2.7
	l-0.9,2.7l-0.8,2.7l-0.8,2.7l-0.7,2.8l-0.6,2.8l-0.6,2.8l-0.5,2.8l-0.4,2.8l-0.3,2.8l-0.3,2.9l-0.3,2.8l-0.1,2.9l-0.1,2.8v2.9
	l0.1,2.8l0.1,2.9l0.2,2.8l0.3,2.8l0.4,2.9l0.4,2.8l0.5,2.8l0.5,2.8l0.6,2.8l0.7,2.8l0.8,2.7l0.8,2.7l0.9,2.7l1,2.7l1,2.7l1.1,2.6
	l1.2,2.6l1.2,2.6l1.3,2.6l1.3,2.5l1.4,2.4l1.5,2.5l1.5,2.4l1.6,2.4l1.7,2.3l1.7,2.3l1.7,2.2l1.8,2.2L61,223l1.9,2.1l2,2l2,2.1
	l2.1,1.9l2.1,1.9l2.2,1.9l2.2,1.8l2.3,1.7l2.3,1.7l2.3,1.6l2.4,1.6l2.4,1.5l2.5,1.5l2.5,1.4l2.5,1.3l2.5,1.3l2.6,1.2l2.6,1.1
	l2.7,1.1l2.6,1l2.7,0.9l2.7,0.9l2.8,0.8l2.7,0.8l2.8,0.6l2.8,0.6l2.8,0.6l2.8,0.4l2.8,0.4l2.9,0.4l2.8,0.2l2.9,0.2l2.8,0.1l2.9,0.1
	l2.8-0.1l2.9-0.1l2.8-0.1 M119,60.1l-2.1,0.7l-2.1,0.8l-2.2,0.9l-2,0.9l-2.1,0.9l-2.1,1l-2,1l-2,1.1l-1.9,1.2l-2,1.2L96.6,71
	l-1.8,1.3l-1.9,1.4L91.1,75l-1.7,1.5l-1.8,1.4L86,79.5L84.3,81l-1.6,1.6l-1.6,1.7l-1.5,1.6l-1.5,1.7l-1.5,1.8l-1.4,1.8L73.9,93
	l-1.3,1.9l-1.3,1.8l-1.2,2l-1.2,1.9l-1.1,2l-1.1,2l-1,2l-1,2.1l-0.9,2.1l-0.8,2.1l-0.8,2.1l-0.8,2.1l-0.7,2.2l-0.7,2.2l-0.5,2.2
	l-0.6,2.2l-0.5,2.2l-0.4,2.2l-0.4,2.3l-0.3,2.2l-0.2,2.3l-0.2,2.2l-0.2,2.3l-0.1,2.3v2.2v2.3l0.1,2.3l0.1,2.2l0.2,2.3l0.3,2.3
	l0.3,2.2L58,162l0.4,2.2l0.5,2.2l0.5,2.2l0.6,2.2l0.6,2.2l0.7,2.2l0.8,2.1l0.8,2.1l0.8,2.1l1,2.1l0.9,2.1l1,2l1.1,2l1.1,2l1.2,1.9
	l1.2,2l1.2,1.9l1.4,1.8l1.3,1.8l1.4,1.8l1.4,1.8l1.5,1.7l1.6,1.7l1.5,1.6l1.6,1.6l1.7,1.6l1.7,1.5l1.7,1.5l1.8,1.4l1.8,1.4l1.8,1.3
	l1.9,1.3l1.9,1.3l1.9,1.2l2,1.1l1.9,1.1l2.1,1.1l2,1l2.1,0.9l2.1,0.9l2.1,0.9l2.1,0.8l2.1,0.7l2.2,0.7l2.2,0.6l2.2,0.6l2.2,0.5
	l2.2,0.5l2.3,0.4l2.2,0.4l2.3,0.2l2.2,0.3 M117.3,40.5l-2.5,0.7l-2.6,0.9l-2.5,0.8l-2.5,1l-2.5,1l-2.5,1.1l-2.4,1.1l-2.4,1.2
	L95,49.5l-2.3,1.3l-2.3,1.4l-2.3,1.4l-2.2,1.5l-2.2,1.5l-2.2,1.6l-2.1,1.6l-2.1,1.7l-2.1,1.7l-2,1.8l-1.9,1.8l-1.9,1.9l-1.9,1.9
	l-1.8,2l-1.8,2l-1.7,2l-1.7,2.1l-1.6,2.2L57.3,83l-1.5,2.2l-1.5,2.3l-1.4,2.3l-1.3,2.3l-1.3,2.3l-1.2,2.4l-1.2,2.4l-1.1,2.4
	l-1.1,2.5l-1,2.5l-0.9,2.5l-0.9,2.5l-0.8,2.6l-0.8,2.6l-0.6,2.6L40,122l-0.5,2.6l-0.5,2.6l-0.5,2.7l-0.3,2.6l-0.3,2.7l-0.3,2.6
	l-0.1,2.7l-0.1,2.7l-0.1,2.7v2.6l0.1,2.7l0.2,2.7l0.2,2.7l0.3,2.6l0.3,2.7l0.5,2.6l0.4,2.7l0.6,2.6l0.6,2.6l0.6,2.6l0.8,2.6l0.8,2.5
	l0.8,2.6l1,2.5l0.9,2.5l1.1,2.5l1.1,2.4l1.1,2.4l1.2,2.4l1.3,2.4l1.4,2.3l1.3,2.3l1.5,2.2l1.5,2.2l1.5,2.2l1.6,2.2l1.7,2.1l1.7,2
	l1.8,2.1l1.8,1.9l1.8,2l1.9,1.9l2,1.8l2,1.8l2,1.7l2.1,1.7l2.1,1.7l2.2,1.6l2.1,1.5l2.3,1.5l2.2,1.4l2.3,1.4l2.4,1.3l2.3,1.3
	l2.4,1.2l2.5,1.1l2.4,1.1l2.5,1l2.5,1l2.5,0.9l2.6,0.8l2.5,0.8l2.6,0.7l2.6,0.7l2.6,0.6l2.6,0.5l2.7,0.4l2.6,0.4l2.7,0.4l2.7,0.2
	l2.6,0.2l2.7,0.2h2.7l2.7,0.1l2.6-0.1l2.7-0.1 M117.3,36.5l-2.6,0.8l-2.7,0.8l-2.6,0.9l-2.6,1l-2.6,1l-2.6,1.1l-2.5,1.1l-2.5,1.2
	l-2.5,1.3L91.7,47l-2.4,1.4l-2.4,1.5l-2.3,1.5l-2.3,1.5L80,54.5l-2.2,1.7l-2.2,1.7l-2.1,1.8l-2.1,1.8l-2.1,1.9l-2,1.9l-1.9,2l-1.9,2
	l-1.9,2.1l-1.8,2.1l-1.7,2.2l-1.7,2.2l-1.7,2.2l-1.6,2.3l-1.5,2.3l-1.5,2.4l-1.4,2.4l-1.4,2.4L46,94.4l-1.2,2.4l-1.2,2.6l-1.1,2.5
	l-1,2.6l-1,2.6l-0.9,2.6l-0.9,2.6l-0.8,2.7l-0.7,2.7l-0.7,2.7l-0.6,2.7l-0.5,2.7l-0.5,2.8l-0.4,2.7l-0.3,2.8l-0.3,2.7l-0.2,2.8
	l-0.1,2.8l-0.1,2.8v2.7l0.1,2.8l0.1,2.8l0.3,2.8l0.2,2.7l0.4,2.8l0.4,2.7l0.5,2.8L36,170l0.6,2.7l0.7,2.7l0.8,2.7l0.8,2.6l0.8,2.7
	l1,2.6l1,2.6l1.1,2.5l1.1,2.6l1.2,2.5l1.2,2.5l1.3,2.4l1.4,2.4l1.4,2.4l1.5,2.4l1.6,2.3l1.6,2.3l1.6,2.2l1.7,2.2l1.8,2.1l1.8,2.1
	l1.9,2.1l1.9,2l2,2l2,1.9l2,1.9l2.1,1.8l2.2,1.7l2.2,1.8l2.2,1.6l2.3,1.6l2.3,1.6l2.3,1.5l2.4,1.4l2.4,1.4l2.5,1.3l2.4,1.2l2.5,1.2
	l2.6,1.2l2.6,1l2.5,1l2.7,1l2.6,0.9l2.6,0.8l2.7,0.7l2.7,0.7l2.7,0.6l2.8,0.6l2.7,0.5l2.7,0.4l2.8,0.3l2.8,0.3l2.7,0.2l2.8,0.2h2.8
	l2.8,0.1l2.7-0.1l2.8-0.1 M119,183.3l3.9,10.5l8.3,7.4l10.6,4.3l11.2,1.6l10.9-1.9l10.3-4.8l8.2-7.5l3.5-10.5 M185.9,165.4l-1.2-4.7
	l-2.6-4l-7.9-5.8l-17.2-9l-17.5-8.5l-8.4-4.9l-4-3.6l-1.9-3.8 M155.4,224.1l17.9-3.6l15.6-9.4l9.2-11l4.9-13.3 M203,162.9l-1.8-8.7
	l-4.6-7.6l-6.3-6.4l-8.7-5.9l-9.4-4.6 M101.5,184.9l2.1,10.8l5.1,9.2l7.4,7.5l10.7,6.6l12,4 M138.8,68.1l-17.9,3.6L105.3,81
	l-9.2,11.1l-4.9,13.3 M175.2,108.9l-3.8-10.6L163,91l-10.6-4.4l-11.1-1.5l-11,1.9L120,91.7l-8.1,7.6l-3.6,10.5 M192.7,107.3
	l-2.1-10.8l-5.1-9.2l-7.3-7.6l-10.8-6.6l-12-3.9"/>
<path class="st1" d="M169.1,185.6v-14.5 M91.2,105.4v23.9 M108.3,109.8v16.9"/>
<path class="st1" d="M175.2,251.3v6.2 M138.8,37.2v-6.1 M175.2,232.1v19.2 M138.8,55.7V37.2 M155.4,55.7v13.5 M138.8,55.7v12.4
	 M122.1,162.4l47,23.2 M175.2,108.9l17.5-1.6"/>
<path class="st1" d="M117.3,40.5v-4 M176.9,255.3v-3.5 M140.5,36.1v-3.4 M154.6,261.4L154.6,261.4 M155.4,255v6.4 M119,40.9v-6.6
	 M153.7,256v3.8 M185.9,182.4v-17 M155.4,236.5V255 M125.2,106.6v14.5 M172.2,129.7l-47-23.1 M203,186.8v-23.9 M119,60.1V40.9
	 M155.4,236.5v-12.4 M119,183.3l-17.5,1.6 M138.8,236.5V223"/>
</svg>
