<svg xmlns="http://www.w3.org/2000/svg" width="293" height="1701" viewBox="0 0 293 1701">
    <g fill="none" fill-rule="evenodd">
        <path stroke="#C2B9A9" stroke-width="2" d="M109.5 1425.5v17h33v10.044L166.792 1435l-24.292-17.544v8.044h-33zM109.5 1625.5v17h33v10.044L166.792 1635l-24.292-17.544v8.044h-33z"/>
        <rect width="132.3" height="135" fill="#C2B9A9" rx="11.7" transform="translate(0 1565.3)"/>
        <g fill="#F0EDEB">
            <path d="M79.559 1597.766c0 .452-.195.7-.253.718h-.748c-.559 0-.996.533-.996 1.214v19.42h-1.407v-16.77c0-.457-.334-.828-.745-.828H54.256c-.412 0-.746.371-.746.829v16.768h-1.407v-19.419c0-.68-.437-1.214-.995-1.214h-.746c-.061-.017-.255-.266-.255-.718v-3.22c0-.382.142-.645.243-.71l13.972-8.982a.68.68 0 0 1 .778-.004l14.215 8.992c.1.064.244.327.244.711v3.213zM55 1619.176h19.663v-7.608H55.001v7.608zm0-9.265h19.663v-6.734H55.001v6.734zm25.052-17.509l-14.216-8.992a2.08 2.08 0 0 0-1.123-.338c-.391 0-.785.12-1.139.348l-13.972 8.982c-.609.392-.987 1.214-.987 2.145v3.219c0 1.331.765 2.374 1.743 2.374h.253v19.036h-1.04v1.657h30.521v-1.657h-1.04v-19.036h.253c.978 0 1.744-1.043 1.744-2.374v-3.213c0-.937-.382-1.761-.997-2.15z"/>
            <path d="M54.948 1597.982h3.5v-1.821h-3.5v1.821zm4.246-3.478h-4.991c-.412 0-.746.37-.746.828v3.479c0 .457.334.828.746.828h4.99c.412 0 .746-.37.746-.828v-3.479c0-.457-.334-.828-.745-.828zM62.816 1597.982h3.5v-1.821h-3.5v1.821zm4.246-3.478H62.07c-.411 0-.745.37-.745.828v3.479c0 .457.334.828.745.828h4.992c.411 0 .745-.37.745-.828v-3.479c0-.457-.334-.828-.745-.828zM71.289 1597.982h3.5v-1.821h-3.5v1.821zm4.246-3.478h-4.992c-.411 0-.745.37-.745.828v3.479c0 .457.334.828.745.828h4.992c.411 0 .745-.37.745-.828v-3.479c0-.457-.334-.828-.745-.828zM57.229 1608.265H72.96c.412 0 .746-.37.746-.828 0-.458-.334-.829-.746-.829H57.23c-.412 0-.746.371-.746.829 0 .457.334.828.746.828M57.229 1605.575H72.96c.412 0 .746-.37.746-.828 0-.457-.334-.829-.746-.829H57.23c-.412 0-.746.372-.746.829 0 .457.334.828.746.828"/>
        </g>
        <text fill="#FFF" font-family="Montserrat-Medium, Montserrat" font-size="9.9" font-weight="400" letter-spacing=".88" transform="translate(0 1565.3)">
            <tspan x="11.35" y="76.6">Supplier is paid by </tspan> <tspan x="27.418" y="93.502">merchant for </tspan> <tspan x="47.942" y="110.404">goods</tspan>
        </text>
        <rect width="132.3" height="135" fill="#89AB9A" rx="11.7" transform="translate(157 1364)"/>
        <g stroke="#F0EDEB" stroke-linejoin="round" stroke-width="1.782">
            <path stroke-linecap="round" d="M206.631 1397.811h6.052v19.501h-6.052"/>
            <path d="M210.262 1412.605c0 .372-.27.673-.605.673-.334 0-.605-.3-.605-.673 0-.372.27-.672.605-.672.335 0 .605.3.605.672zM225.19 1418.657c-1.38 0-2.5-1.204-2.5-2.69 0-1.485 1.12-2.69 2.5-2.69h3.753c1.382 0 2.502 1.205 2.502 2.69 0 1.486-1.12 2.69-2.502 2.69h-13.758c-1.382 0-2.502-1.204-2.502-2.69M226.14 1412.605c-1.415 0-2.563-1.204-2.563-2.69 0-1.485 1.148-2.69 2.563-2.69h5.768c1.415 0 2.563 1.205 2.563 2.69 0 1.486-1.148 2.69-2.563 2.69h-2.564"/>
            <path d="M226.603 1407.226c-1.337 0-2.42-1.205-2.42-2.69 0-1.486 1.083-2.69 2.42-2.69h1.21M233.26 1401.846c1.337 0 2.421 1.204 2.421 2.69 0 1.485-1.084 2.69-2.42 2.69h-1.211M228.015 1396.26c-1.41 0-2.555 1.25-2.555 2.793 0 1.542 1.144 2.793 2.555 2.793h5.11c1.412 0 2.556-1.25 2.556-2.793 0-1.543-1.144-2.793-2.555-2.793h-10.221v-8.38c0-2.314-1.717-4.19-3.833-4.19h-1.278v6.285l-5.11 9.078"/>
        </g>
        <text fill="#FFF" font-family="Montserrat-Medium, Montserrat" font-size="9.9" font-weight="400" letter-spacing=".88" transform="translate(37 1298)">
            <tspan x="137.663" y="142">Miner is paid for </tspan> <tspan x="159.696" y="158.902">verifying </tspan> <tspan x="152.029" y="175.804">transaction</tspan>
        </text>
        <g>
            <rect width="132.3" height="135" fill="#89AB9A" rx="11.7" transform="translate(160 1566)"/>
            <g stroke="#F0EDEB" stroke-linejoin="round" stroke-width="1.782">
                <path stroke-linecap="round" d="M209.631 1599.811h6.052v19.501h-6.052"/>
                <path d="M213.262 1614.605c0 .372-.27.673-.605.673-.334 0-.605-.3-.605-.673 0-.372.27-.672.605-.672.335 0 .605.3.605.672zM228.19 1620.657c-1.38 0-2.5-1.204-2.5-2.69 0-1.485 1.12-2.69 2.5-2.69h3.753c1.382 0 2.502 1.205 2.502 2.69 0 1.486-1.12 2.69-2.502 2.69h-13.758c-1.382 0-2.502-1.204-2.502-2.69M229.14 1614.605c-1.415 0-2.563-1.204-2.563-2.69 0-1.485 1.148-2.69 2.563-2.69h5.768c1.415 0 2.563 1.205 2.563 2.69 0 1.486-1.148 2.69-2.563 2.69h-2.564"/>
                <path d="M229.603 1609.226c-1.337 0-2.42-1.205-2.42-2.69 0-1.486 1.083-2.69 2.42-2.69h1.21M236.26 1603.846c1.337 0 2.421 1.204 2.421 2.69 0 1.485-1.084 2.69-2.42 2.69h-1.211M231.015 1598.26c-1.41 0-2.555 1.25-2.555 2.793 0 1.542 1.144 2.793 2.555 2.793h5.11c1.412 0 2.556-1.25 2.556-2.793 0-1.543-1.144-2.793-2.555-2.793h-10.221v-8.38c0-2.314-1.717-4.19-3.833-4.19h-1.278v6.285l-5.11 9.078"/>
            </g>
            <text fill="#FFF" font-family="Montserrat-Medium, Montserrat" font-size="9.9" font-weight="400" letter-spacing=".88" transform="translate(40 1500)">
                <tspan x="137.663" y="142">Miner is paid for </tspan> <tspan x="159.696" y="158.902">verifying </tspan> <tspan x="152.029" y="175.804">transaction</tspan>
            </text>
        </g>
        <g>
            <rect width="132.3" height="135" fill="#C2B9A9" rx="11.7" transform="translate(2 1363.3)"/>
            <g fill="#F0EDEB">
                <path d="M81.714 1394.26c-.182.982-.75 2.153-2.418 2.153-1.278 0-2.154-.93-2.755-2.929a.682.682 0 0 0-.05-.123 8.533 8.533 0 0 0-.117-.4l-2.51-7.89h3.716c.311 0 .601.202.737.514l3.147 7.236c.24.554.325 1.038.25 1.44zm-6.296.582c-.295.954-1.232 1.57-2.386 1.57-1.344 0-2.231-.856-2.5-2.411l-1.036-8.93h3.12l2.648 8.326c.15.474.287 1.016.154 1.445zm-8.651 1.57c-1.279 0-2.57-.78-2.592-2.272l1.258-9.07h2.876l1.05 9.062c-.016 1.497-1.311 2.28-2.592 2.28zm-6.265 0c-1.172 0-2.086-.601-2.386-1.57-.133-.43.005-.97.157-1.441l2.688-8.33h3.28l-1.236 8.919c-.25 1.562-1.139 2.423-2.503 2.423zm-3.337-3.453c-.041.127-.08.26-.117.395a.696.696 0 0 0-.055.13c-.601 1.998-1.477 2.929-2.755 2.929-1.668 0-2.236-1.17-2.418-2.153-.075-.4.01-.885.25-1.439l3.147-7.236c.136-.312.426-.514.738-.514h3.755l-2.545 7.888zm25.36-.707l-3.148-7.237c-.331-.761-1.037-1.253-1.797-1.253H55.955c-.761 0-1.467.492-1.798 1.253l-3.147 7.237c-.356.819-.472 1.584-.344 2.273.373 2.001 1.708 3.196 3.572 3.196 1.253 0 2.263-.62 3.02-1.847.608 1.14 1.818 1.847 3.244 1.847 1.327 0 2.385-.612 3.036-1.702.649 1.035 1.824 1.702 3.229 1.702 1.408 0 2.586-.67 3.234-1.71.654 1.094 1.712 1.71 3.03 1.71 1.427 0 2.637-.708 3.246-1.847.756 1.227 1.766 1.847 3.02 1.847 1.863 0 3.198-1.195 3.57-3.196.129-.69.013-1.454-.343-2.273zM60.227 1404.572h-1.155c-.325 0-.589-.293-.589-.654 0-.362.264-.655.59-.655h1.154c.325 0 .59.293.59.655 0 .36-.265.654-.59.654M75.518 1406.706a.558.558 0 0 1-.417-.192l-4.341-4.824a.707.707 0 0 1 0-.925.548.548 0 0 1 .833 0l4.341 4.824c.23.256.23.67 0 .925a.558.558 0 0 1-.416.192M76.484 1403.745a.56.56 0 0 1-.416-.191l-2.282-2.536a.707.707 0 0 1 0-.925.548.548 0 0 1 .833 0l2.282 2.535c.23.256.23.67 0 .926a.56.56 0 0 1-.417.191M62.687 1410.69v-11.48c0-.361-.263-.654-.589-.654-.325 0-.589.293-.589.654v11.48h1.178"/>
                <path d="M53.609 1414.022h26.607v-2.053H53.609v2.053zm27.196 1.309H53.02c-.325 0-.589-.293-.589-.654v-3.362c0-.362.264-.655.59-.655h27.784c.325 0 .589.293.589.655v3.362c0 .361-.264.654-.59.654z"/>
                <path d="M53.609 1414.022h26.607v-2.053H53.609v2.053zm27.196 1.309H53.02c-.325 0-.589-.293-.589-.654v-3.362c0-.362.264-.655.59-.655h27.784c.325 0 .589.293.589.655v3.362c0 .361-.264.654-.59.654zM80.238 1399.21c0-.361-.264-.654-.589-.654-.325 0-.589.293-.589.654v11.326h1.178v-11.326"/>
                <path d="M54.82 1410.845v-11.635c0-.36-.264-.654-.59-.654-.325 0-.588.293-.588.654v11.635h1.177"/>
            </g>
            <text fill="#FFF" font-family="Montserrat-Medium, Montserrat" font-size="9.9" font-weight="400" letter-spacing=".88" transform="translate(2 1363.3)">
                <tspan x="16.798" y="76.6">Merchant is paid </tspan> <tspan x="26.824" y="93.502">by Moms and </tspan> <tspan x="16.54" y="110.404">Miners for goods</tspan>
            </text>
        </g>
        <path stroke="#C2B9A9" stroke-width="2" d="M79 1482H62v33H51.956l17.544 24.292L87.044 1515H79v-33z"/>
        <g>
            <circle cx="105" cy="105" r="105" fill="#C2B9A9" transform="translate(48 885)"/>
            <g transform="translate(39 884)">
                <path fill="#C2B9A9" fill-rule="nonzero" d="M36.97 74.763C16.551 74.763 0 58.027 0 37.38 0 16.736 16.552 0 36.97 0c20.417 0 36.969 16.736 36.969 37.381 0 20.646-16.552 37.382-36.97 37.382zm0-8.56c15.741 0 28.502-12.904 28.502-28.822 0-15.917-12.76-28.82-28.503-28.82-15.741 0-28.503 12.903-28.503 28.82 0 15.918 12.762 28.821 28.503 28.821z"/>
                <ellipse cx="37.736" cy="38.153" fill="#FFF" rx="32.736" ry="33.101"/>
                <ellipse cx="38" cy="38.392" fill="#FFF" stroke="#C2B9A9" stroke-width="2" rx="37" ry="37.381"/>
                <text fill="#C2B9A9" font-family="Montserrat-Medium, Montserrat" font-size="30" font-weight="400" letter-spacing=".951">
                    <tspan x="16.009" y="46.34">04</tspan>
                </text>
            </g>
            <text fill="#FFF" font-family="Montserrat-Medium, Montserrat" font-size="12" font-weight="400" letter-spacing="1.067" transform="translate(39 884)">
                <tspan x="55.162" y="116">Parent is paid for </tspan> <tspan x="68.251" y="138">sending child </tspan> <tspan x="84.112" y="160">to school</tspan>
            </text>
            <g stroke="#F0EDEB" stroke-linejoin="round" stroke-width="2">
                <path d="M161.6 974.8H172s-2.92-5.416-3.376-11.7M134.594 963.1c-.457 6.284-3.394 11.7-3.394 11.7h10.4"/>
                <path d="M136.8 962.2c0 9.444 6.805 17.1 15.2 17.1s15.2-7.656 15.2-17.1M168 952.3v-3.913c0-10.265-7.521-18.587-16.8-18.587s-16.8 8.322-16.8 18.587v3.913"/>
                <path d="M167.2 953.2c-12.347-.73-24.141-6.287-24.141-11.7 0 1.63-1.626 3.722-2.683 4.875-2.01 2.193-3.576 3.082-3.576 5.85v.975M136.8 963.1H134c-1.546 0-2.8-1.33-2.8-2.97v-3.96c0-1.64 1.254-2.97 2.8-2.97h2.8v9.9zM172 960.13c0 1.64-1.254 2.97-2.8 2.97h-2.8v-9.9h2.8c1.546 0 2.8 1.33 2.8 2.97v3.96z"/>
            </g>
            <g>
                <circle cx="105" cy="105" r="105" fill="#89AB9A" transform="translate(48 599)"/>
                <g transform="translate(39 598)">
                    <path fill="#89AB9A" fill-rule="nonzero" d="M36.97 74.763C16.551 74.763 0 58.027 0 37.38 0 16.736 16.552 0 36.97 0c20.417 0 36.969 16.736 36.969 37.381 0 20.646-16.552 37.382-36.97 37.382zm0-8.56c15.741 0 28.502-12.904 28.502-28.822 0-15.917-12.76-28.82-28.503-28.82-15.741 0-28.503 12.903-28.503 28.82 0 15.918 12.762 28.821 28.503 28.821z"/>
                    <ellipse cx="37.211" cy="37.624" fill="#FFF" rx="35.211" ry="35.604"/>
                    <ellipse cx="38" cy="38.392" fill="#FFF" stroke="#89AB9A" stroke-width="2" rx="37" ry="37.381"/>
                    <text fill="#89AB9A" font-family="Montserrat-Medium, Montserrat" font-size="30" font-weight="400" letter-spacing=".951">
                        <tspan x="17.614" y="47.351">03</tspan>
                    </text>
                </g>
                <text fill="#FFF" font-family="Montserrat-Medium, Montserrat" font-size="12" font-weight="400" letter-spacing="1.067" transform="translate(45 605)">
                    <tspan x="43.493" y="109">Miners are paid for </tspan> <tspan x="57.171" y="131">verifying effort</tspan>
                </text>
                <g stroke="#F0EDEB" stroke-linejoin="round" stroke-width="2">
                    <path stroke-linecap="round" d="M132.8 664.5h8v26.1h-8"/>
                    <path d="M137.6 684.3c0 .498-.358.9-.8.9-.442 0-.8-.402-.8-.9s.358-.9.8-.9c.442 0 .8.402.8.9zM157.333 692.4c-1.826 0-3.306-1.612-3.306-3.6s1.48-3.6 3.306-3.6h4.96c1.826 0 3.307 1.612 3.307 3.6s-1.48 3.6-3.307 3.6h-18.186c-1.826 0-3.307-1.612-3.307-3.6M158.588 684.3c-1.87 0-3.388-1.612-3.388-3.6s1.517-3.6 3.388-3.6h7.624c1.87 0 3.388 1.612 3.388 3.6s-1.517 3.6-3.388 3.6h-3.388"/>
                    <path d="M159.2 677.1c-1.767 0-3.2-1.612-3.2-3.6s1.433-3.6 3.2-3.6h1.6M168 669.9c1.767 0 3.2 1.612 3.2 3.6s-1.433 3.6-3.2 3.6h-1.6"/>
                    <path d="M161.067 662.423c-1.866 0-3.378 1.674-3.378 3.739 0 2.064 1.512 3.738 3.378 3.738h6.755c1.866 0 3.378-1.674 3.378-3.738 0-2.065-1.512-3.739-3.378-3.739h-13.51v-11.215c0-3.097-2.27-5.608-5.068-5.608h-1.688v8.412l-6.756 12.15"/>
                </g>
            </g>
            <g>
                <circle cx="105" cy="105" r="105" fill="#C2B9A9" transform="translate(48 284)"/>
                <g transform="translate(39 283)">
                    <path fill="#C2B9A9" fill-rule="nonzero" d="M36.97 74.763C16.551 74.763 0 58.027 0 37.38 0 16.736 16.552 0 36.97 0c20.417 0 36.969 16.736 36.969 37.381 0 20.646-16.552 37.382-36.97 37.382zm0-8.56c15.741 0 28.502-12.904 28.502-28.822 0-15.917-12.76-28.82-28.503-28.82-15.741 0-28.503 12.903-28.503 28.82 0 15.918 12.762 28.821 28.503 28.821z"/>
                    <ellipse cx="37.736" cy="38.153" fill="#FFF" rx="32.736" ry="33.101"/>
                    <ellipse cx="38" cy="38.392" fill="#FFF" stroke="#C2B9A9" stroke-width="2" rx="37" ry="37.381"/>
                    <text fill="#C2B9A9" font-family="Montserrat-Medium, Montserrat" font-size="30" font-weight="400" letter-spacing=".951">
                        <tspan x="17.479" y="46.34">02</tspan>
                    </text>
                </g>
                <text fill="#FFF" font-family="Montserrat-Medium, Montserrat" font-size="12" font-weight="400" letter-spacing="1.067" transform="translate(45 290)">
                    <tspan x="24.637" y="109">Designated spotters get </tspan> <tspan x="40.396" y="131">micro-payments for </tspan> <tspan x="52.233" y="153">verification data</tspan>
                </text>
                <g stroke="#F0EDEB">
                    <path stroke-linejoin="round" stroke-width="2" d="M134.222 370.932h24.89"/>
                    <path stroke-linecap="round" stroke-linejoin="round" stroke-width="2" d="M141.333 375.508h3.556"/>
                    <path d="M147.556 332.034c0 .253-.2.458-.445.458a.451.451 0 0 1-.444-.458c0-.253.199-.458.444-.458s.445.205.445.458z"/>
                    <path stroke-linejoin="round" stroke-width="2" d="M160.889 359.034c6.382 0 11.555-5.327 11.555-11.898 0-6.572-5.173-11.899-11.555-11.899s-11.556 5.327-11.556 11.899c0 3.285 1.294 6.26 3.385 8.413l-3.385 3.485h11.556z"/>
                    <path stroke-linecap="round" stroke-linejoin="round" stroke-width="2" d="M163.556 343.475H160c-.981 0-1.778.82-1.778 1.83 0 1.01.797 1.83 1.778 1.83h1.778c.981 0 1.778.82 1.778 1.831 0 1.01-.797 1.83-1.778 1.83h-3.556M160 341.644v1.83M160 350.797v1.83"/>
                    <path stroke-linejoin="round" stroke-width="2" d="M161.283 328.49a3.394 3.394 0 0 0-1.898-.575h-21.88c-1.814 0-3.283 1.377-3.283 3.076v45.103c0 1.7 1.47 3.075 3.282 3.075h21.88c1.812 0 3.283-1.375 3.283-3.075v-13.326M148.284 336.153h-14.062"/>
                </g>
            </g>
            <g>
                <circle cx="105" cy="105" r="105" fill="#C2B9A9" transform="translate(46 1)"/>
                <g transform="translate(37)">
                    <path fill="#C2B9A9" fill-rule="nonzero" d="M36.97 74.763C16.551 74.763 0 58.027 0 37.38 0 16.736 16.552 0 36.97 0c20.417 0 36.969 16.736 36.969 37.381 0 20.646-16.552 37.382-36.97 37.382zm0-8.56c15.741 0 28.502-12.904 28.502-28.822 0-15.917-12.76-28.82-28.503-28.82-15.741 0-28.503 12.903-28.503 28.82 0 15.918 12.762 28.821 28.503 28.821z"/>
                    <ellipse cx="37.736" cy="38.153" fill="#FFF" rx="32.736" ry="33.101"/>
                    <ellipse cx="38" cy="38.392" fill="#FFF" stroke="#C2B9A9" stroke-width="2" rx="37" ry="37.381"/>
                    <text fill="#C2B9A9" font-family="Montserrat-Medium, Montserrat" font-size="30" font-weight="400" letter-spacing=".951">
                        <tspan x="20.539" y="46.34">01</tspan>
                    </text>
                </g>
                <text fill="#FFF" font-family="Montserrat-Medium, Montserrat" font-size="12" font-weight="400" letter-spacing="1.067" transform="translate(43 7)">
                    <tspan x="41.2" y="109">Mom sends child to </tspan> <tspan x="87.512" y="131">school</tspan>
                </text>
                <path fill="#F0EDEB" d="M169 65.444c0 .564-.403 1.021-.9 1.021h-.9v-8.169h.9c.497 0 .9.458.9 1.021v6.127zm-1.798 23.487H131.2v-2.044h36l.002 2.044zM160 95.058h3.6v-4.086H160v4.086zm-25.2 0h3.6v-4.086h-3.6v4.086zm-4.5-28.593c-.497 0-.9-.457-.9-1.02v-6.128c0-.563.403-1.02.9-1.02h.9v8.168h-.9zm24.3 11.233v7.148h-10.8v-7.148c0-.564.403-1.021.9-1.022h9c.497 0 .9.458.9 1.022zM133 72.591h32.4v12.255h-9v-7.148c0-1.689-1.211-3.063-2.7-3.063h-9c-1.489 0-2.7 1.374-2.7 3.063v7.148h-9V72.591zm0-2.041h15.3V58.295H133V70.55zm17.1 0h15.3V58.295h-15.3V70.55zM133 53.19c0-3.38 6.654-7.148 16.2-7.148s16.2 3.767 16.2 7.148v3.064H133V53.19zm35.1 3.064h-.9V53.19c0-5.153-7.906-9.19-18-9.19-10.093 0-18 4.037-18 9.19v3.064h-.9c-1.489 0-2.7 1.374-2.7 3.063v6.127c0 1.69 1.211 3.064 2.7 3.064h.9v16.338c-.993 0-1.8.916-1.8 2.042v2.043c0 1.126.807 2.042 1.8 2.041h1.8v4.086c0 1.126.807 2.042 1.8 2.042h3.6c.993 0 1.8-.916 1.8-2.042v-4.086h18v4.086c0 1.126.807 2.042 1.8 2.042h3.6c.993 0 1.8-.916 1.8-2.042v-4.086h1.8c.993.001 1.8-.915 1.8-2.041v-2.043c0-1.126-.807-2.042-1.8-2.042V68.508h.9c1.489 0 2.7-1.375 2.7-3.064v-6.127c0-1.689-1.211-3.063-2.7-3.063zm-24.3-4.085h10.8v-2.043h-10.8v2.043zm11.7-4.084h-12.6c-.498 0-.9.456-.9 1.02v4.085c0 .565.402 1.022.9 1.022h12.6c.498 0 .9-.457.9-1.022v-4.084c0-.565-.402-1.021-.9-1.021zm-17.1 2.042c-.993 0-1.8.916-1.8 2.042 0 1.127.807 2.043 1.8 2.043s1.8-.916 1.8-2.043c0-1.126-.807-2.042-1.8-2.042zm21.6 0c-.993 0-1.8.916-1.8 2.042 0 1.127.807 2.043 1.8 2.043s1.8-.916 1.8-2.043c0-1.126-.807-2.042-1.8-2.042zm.9 28.592c.497 0 .9.458.9 1.021 0 .564-.403 1.022-.9 1.022s-.9-.458-.9-1.022c0-.563.403-1.02.9-1.02zm0 4.085c1.489 0 2.7-1.375 2.7-3.064s-1.211-3.063-2.7-3.063-2.7 1.374-2.7 3.063c0 1.69 1.211 3.064 2.7 3.064zm-23.4-2.042c-.497 0-.9-.458-.9-1.022 0-.563.403-1.02.9-1.02s.9.457.9 1.02c0 .564-.403 1.022-.9 1.022zm0-4.085c-1.489 0-2.7 1.374-2.7 3.063 0 1.69 1.211 3.064 2.7 3.064s2.7-1.375 2.7-3.064-1.211-3.063-2.7-3.063z"/>
            </g>
            <g stroke="#C2B9A9" stroke-width="2">
                <path d="M227.359 268.043l-8.589-3.843 9.359 34.869 32.067-16.322-9.517-4.26c.15-.325.319-.64.464-.966 15.443-34.685 7.094-73.804-17.97-98.805 11.043 18.696 11.144 53.764-2.123 81.988a132.959 132.959 0 0 1-3.691 7.34z"/>
            </g>
            <g stroke="#C2B9A9" stroke-width="2">
                <path d="M98.641 567.043l8.589-3.843-9.359 34.869-32.067-16.322 9.517-4.26c-.15-.325-.319-.64-.464-.966-15.443-34.685-7.094-73.804 17.97-98.805-11.043 18.696-11.144 53.764 2.123 81.988a132.959 132.959 0 0 0 3.691 7.34z"/>
            </g>
            <g stroke="#C2B9A9" stroke-width="2">
                <path d="M229.359 862.043l-8.589-3.843 9.359 34.869 32.067-16.322-9.517-4.26c.15-.325.319-.64.464-.966 15.443-34.685 7.094-73.804-17.97-98.805 11.043 18.696 11.144 53.764-2.123 81.988a132.959 132.959 0 0 1-3.691 7.34z"/>
            </g>
        </g>
        <path stroke="#C2B9A9" stroke-width="2" d="M171 1146h-47v87H98.835L146 1306.155 193.165 1233H171v-87z"/>
    </g>
</svg>
